<?xml version="1.0" standalone="no"?>
<!DOCTYPE svg PUBLIC "-//W3C//DTD SVG 20010904//EN"
 "http://www.w3.org/TR/2001/REC-SVG-20010904/DTD/svg10.dtd">
<svg version="1.0" xmlns="http://www.w3.org/2000/svg"
 width="1067.000000pt" height="1067.000000pt" viewBox="0 0 1067.000000 1067.000000"
 preserveAspectRatio="xMidYMid meet">
<metadata>
Created by potrace 1.14, written by Peter Selinger 2001-2017
</metadata>
<g transform="translate(0.000000,1067.000000) scale(0.100000,-0.100000)"
fill="#000000" stroke="none">
<path d="M0 5335 l0 -5335 5335 0 5335 0 0 5335 0 5335 -5335 0 -5335 0 0
-5335z m7360 1835 l1781 -1795 -753 -3 -753 -3 -1142 1148 -1142 1148 -1 765
0 765 114 -115 c63 -63 916 -923 1896 -1910z m-2110 -214 l0 -533 -467 -475
c-258 -261 -492 -500 -522 -531 l-54 -56 521 -528 522 -528 0 -534 0 -534
-697 704 c-383 387 -856 865 -1052 1061 l-355 357 660 668 c362 367 835 846
1049 1064 215 218 391 397 393 398 1 0 2 -239 2 -533z m1764 -1143 l440 -443
-235 -237 c-189 -191 -1452 -1473 -1790 -1818 l-79 -80 0 535 0 535 520 527
c286 289 520 529 520 532 0 3 -234 243 -520 533 l-520 527 0 533 0 532 612
-617 c337 -339 810 -816 1052 -1059z m241 -2353 l-1900 -1900 -3 757 -2 758
1142 1142 1143 1143 760 0 760 0 -1900 -1900z m-2572 182 l567 -567 -2 -753
-3 -752 -1320 1320 -1320 1320 755 0 755 0 568 -568z m52 -1694 l410 -410
-435 6 c-239 3 -974 9 -1633 12 l-1199 7 404 404 403 403 820 -6 820 -6 410
-410z m2609 392 l580 0 410 -410 c226 -225 408 -411 406 -412 -4 -3 -3035 17
-3220 21 l-45 1 405 406 405 406 239 -6 c132 -3 501 -6 820 -6z"/>
</g>
</svg>
